HIERARCHY
ROOT hip
{
  OFFSET 0 90.174 2.4664
  CHANNELS 6 Xposition Yposition Zposition Zrotation Xrotation Yrotation
  JOINT abdomen
  {
    OFFSET 0 -1.186 -1.5018
    CHANNELS 6 Xposition Yposition Zposition Zrotation Xrotation Yrotation
    JOINT abdomen2
    {
      OFFSET 0 9.964 0.2134
      CHANNELS 6 Xposition Yposition Zposition Zrotation Xrotation Yrotation
      JOINT chest
      {
        OFFSET 0 13.134 -3.2573
        CHANNELS 6 Xposition Yposition Zposition Zrotation Xrotation Yrotation
        JOINT neck
        {
          OFFSET 0 20.686 -1.6905
          CHANNELS 6 Xposition Yposition Zposition Zrotation Xrotation Yrotation
          JOINT head
          {
            OFFSET 0 7.238 -0.1237
            CHANNELS 6 Xposition Yposition Zposition Zrotation Xrotation Yrotation
            End Site
            {
              OFFSET 0 0 0
            }
          }
        }
        JOINT lCollar
        {
          OFFSET 1.7069 20.075 5.0056
          CHANNELS 6 Xposition Yposition Zposition Zrotation Xrotation Yrotation
          JOINT lShldr
          {
            OFFSET 13.6458 -0.047 -4.849
            CHANNELS 6 Xposition Yposition Zposition Zrotation Xrotation Yrotation
            JOINT lForeArm
            {
              OFFSET 28.3255 -0.9759 2.2888
              CHANNELS 6 Xposition Yposition Zposition Zrotation Xrotation Yrotation
              JOINT lHand
              {
                OFFSET 22.1583 -0.53 10.8316
                CHANNELS 6 Xposition Yposition Zposition Zrotation Xrotation Yrotation
                JOINT lThumb1
                {
                  OFFSET 0.786 0.112 2.5817
                  CHANNELS 6 Xposition Yposition Zposition Zrotation Xrotation Yrotation
                  JOINT lThumb2
                  {
                    OFFSET 0.3601 -0.878 4.2331
                    CHANNELS 6 Xposition Yposition Zposition Zrotation Xrotation Yrotation
                    JOINT lThumb2_End
                    {
                      OFFSET 1.8127 -1.216 2.2227
                      CHANNELS 6 Xposition Yposition Zposition Zrotation Xrotation Yrotation
                      End Site
                      {
                        OFFSET 0.0181 -0.0122 0.0222
                      }
                    }
                  }
                }
                JOINT lCarpal1
                {
                  OFFSET 0.9571 1.114 1.7695
                  CHANNELS 6 Xposition Yposition Zposition Zrotation Xrotation Yrotation
                  JOINT lIndex1
                  {
                    OFFSET 4.1246 0.487 4.1451
                    CHANNELS 6 Xposition Yposition Zposition Zrotation Xrotation Yrotation
                    JOINT lIndex2
                    {
                      OFFSET 3.4052 -1.454 2.7682
                      CHANNELS 6 Xposition Yposition Zposition Zrotation Xrotation Yrotation
                      JOINT lIndex2_End
                      {
                        OFFSET 1.4531 -1.795 1.2713
                        CHANNELS 6 Xposition Yposition Zposition Zrotation Xrotation Yrotation
                        End Site
                        {
                          OFFSET 0.0145 -0.0179 0.0127
                        }
                      }
                    }
                  }
                  JOINT lMid1
                  {
                    OFFSET 5.6954 0.21 2.1184
                    CHANNELS 6 Xposition Yposition Zposition Zrotation Xrotation Yrotation
                    JOINT lMid2
                    {
                      OFFSET 3.9766 -1.54 2.3863
                      CHANNELS 6 Xposition Yposition Zposition Zrotation Xrotation Yrotation
                      JOINT lMid2_End
                      {
                        OFFSET 1.4042 -1.926 1.125
                        CHANNELS 6 Xposition Yposition Zposition Zrotation Xrotation Yrotation
                        End Site
                        {
                          OFFSET 0.014 -0.0193 0.0113
                        }
                      }
                    }
                  }
                }
                JOINT lCarpal2
                {
                  OFFSET 2.0956 0.66 -0.3894
                  CHANNELS 6 Xposition Yposition Zposition Zrotation Xrotation Yrotation
                  JOINT lRing1
                  {
                    OFFSET 5.0395 -0.09 2.4971
                    CHANNELS 6 Xposition Yposition Zposition Zrotation Xrotation Yrotation
                    JOINT lRing2
                    {
                      OFFSET 3.7921 -1.552 1.4806
                      CHANNELS 6 Xposition Yposition Zposition Zrotation Xrotation Yrotation
                      JOINT lRing2_End
                      {
                        OFFSET 1.4655 -1.808 0.9609
                        CHANNELS 6 Xposition Yposition Zposition Zrotation Xrotation Yrotation
                        End Site
                        {
                          OFFSET 0.0147 -0.0181 0.0096
                        }
                      }
                    }
                  }
                  JOINT lPinky1
                  {
                    OFFSET 4.9141 -1.269 0.3591
                    CHANNELS 6 Xposition Yposition Zposition Zrotation Xrotation Yrotation
                    JOINT lPinky2
                    {
                      OFFSET 3.1477 -1.685 0.8462
                      CHANNELS 6 Xposition Yposition Zposition Zrotation Xrotation Yrotation
                      JOINT lPinky2_End
                      {
                        OFFSET 0.8055 -1.585 0.7955
                        CHANNELS 6 Xposition Yposition Zposition Zrotation Xrotation Yrotation
                        End Site
                        {
                          OFFSET 0.0081 -0.0158 0.008
                        }
                      }
                    }
                  }
                }
              }
            }
          }
        }
        JOINT rCollar
        {
          OFFSET -1.7069 20.075 5.0056
          CHANNELS 6 Xposition Yposition Zposition Zrotation Xrotation Yrotation
          JOINT rShldr
          {
            OFFSET -13.6458 -0.047 -4.849
            CHANNELS 6 Xposition Yposition Zposition Zrotation Xrotation Yrotation
            JOINT rForeArm
            {
              OFFSET -28.3255 -0.9759 2.2888
              CHANNELS 6 Xposition Yposition Zposition Zrotation Xrotation Yrotation
              JOINT rHand
              {
                OFFSET -22.1583 -0.53 10.8316
                CHANNELS 6 Xposition Yposition Zposition Zrotation Xrotation Yrotation
                JOINT rThumb1
                {
                  OFFSET -0.786 0.112 2.5817
                  CHANNELS 6 Xposition Yposition Zposition Zrotation Xrotation Yrotation
                  JOINT rThumb2
                  {
                    OFFSET -0.3601 -0.878 4.2331
                    CHANNELS 6 Xposition Yposition Zposition Zrotation Xrotation Yrotation
                    JOINT rThumb2_End
                    {
                      OFFSET -1.8127 -1.216 2.2227
                      CHANNELS 6 Xposition Yposition Zposition Zrotation Xrotation Yrotation
                      End Site
                      {
                        OFFSET -0.0181 -0.0122 0.0222
                      }
                    }
                  }
                }
                JOINT rCarpal1
                {
                  OFFSET -0.9571 1.114 1.7695
                  CHANNELS 6 Xposition Yposition Zposition Zrotation Xrotation Yrotation
                  JOINT rIndex1
                  {
                    OFFSET -4.1246 0.487 4.1451
                    CHANNELS 6 Xposition Yposition Zposition Zrotation Xrotation Yrotation
                    JOINT rIndex2
                    {
                      OFFSET -3.4052 -1.454 2.7682
                      CHANNELS 6 Xposition Yposition Zposition Zrotation Xrotation Yrotation
                      JOINT rIndex2_End
                      {
                        OFFSET -1.4531 -1.795 1.2713
                        CHANNELS 6 Xposition Yposition Zposition Zrotation Xrotation Yrotation
                        End Site
                        {
                          OFFSET -0.0145 -0.018 0.0127
                        }
                      }
                    }
                  }
                  JOINT rMid1
                  {
                    OFFSET -5.6954 0.21 2.1184
                    CHANNELS 6 Xposition Yposition Zposition Zrotation Xrotation Yrotation
                    JOINT rMid2
                    {
                      OFFSET -3.9766 -1.54 2.3863
                      CHANNELS 6 Xposition Yposition Zposition Zrotation Xrotation Yrotation
                      JOINT rMid2_End
                      {
                        OFFSET -1.4042 -1.926 1.125
                        CHANNELS 6 Xposition Yposition Zposition Zrotation Xrotation Yrotation
                        End Site
                        {
                          OFFSET -0.014 -0.0193 0.0113
                        }
                      }
                    }
                  }
                }
                JOINT rCarpal2
                {
                  OFFSET -2.0956 0.66 -0.3894
                  CHANNELS 6 Xposition Yposition Zposition Zrotation Xrotation Yrotation
                  JOINT rRing1
                  {
                    OFFSET -5.0395 -0.09 2.4971
                    CHANNELS 6 Xposition Yposition Zposition Zrotation Xrotation Yrotation
                    JOINT rRing2
                    {
                      OFFSET -3.7921 -1.552 1.4806
                      CHANNELS 6 Xposition Yposition Zposition Zrotation Xrotation Yrotation
                      JOINT rRing2_End
                      {
                        OFFSET -1.4655 -1.808 0.9609
                        CHANNELS 6 Xposition Yposition Zposition Zrotation Xrotation Yrotation
                        End Site
                        {
                          OFFSET -0.0147 -0.0181 0.0096
                        }
                      }
                    }
                  }
                  JOINT rPinky1
                  {
                    OFFSET -4.9141 -1.269 0.3592
                    CHANNELS 6 Xposition Yposition Zposition Zrotation Xrotation Yrotation
                    JOINT rPinky2
                    {
                      OFFSET -3.1477 -1.685 0.8462
                      CHANNELS 6 Xposition Yposition Zposition Zrotation Xrotation Yrotation
                      JOINT rPinky2_End
                      {
                        OFFSET -0.8055 -1.585 0.7955
                        CHANNELS 6 Xposition Yposition Zposition Zrotation Xrotation Yrotation
                        End Site
                        {
                          OFFSET -0.0081 -0.0158 0.008
                        }
                      }
                    }
                  }
                }
              }
            }
          }
        }
      }
    }
  }
  JOINT lThigh
  {
    OFFSET 8.367 -8.2066 0.5982
    CHANNELS 6 Xposition Yposition Zposition Zrotation Xrotation Yrotation
    JOINT lShin
    {
      OFFSET 2.1923 -43.463 -0.4932
      CHANNELS 6 Xposition Yposition Zposition Zrotation Xrotation Yrotation
      JOINT lFoot
      {
        OFFSET 0.7333 -45.8593 -2.6451
        CHANNELS 6 Xposition Yposition Zposition Zrotation Xrotation Yrotation
        End Site
        {
          OFFSET 2.6618 -4.2699 12.3931
        }
      }
    }
  }
  JOINT rThigh
  {
    OFFSET -8.367 -8.2066 0.5982
    CHANNELS 6 Xposition Yposition Zposition Zrotation Xrotation Yrotation
    JOINT rShin
    {
      OFFSET -2.1923 -43.463 -0.4931
      CHANNELS 6 Xposition Yposition Zposition Zrotation Xrotation Yrotation
      JOINT rFoot
      {
        OFFSET -0.7333 -45.8593 -2.6451
        CHANNELS 6 Xposition Yposition Zposition Zrotation Xrotation Yrotation
        End Site
        {
          OFFSET -2.6618 -4.2699 12.3931
        }
      }
    }
  }
}
MOTION
Frames:	4
Frame Time:	0.0333333
0.864851 14.7238 -4.10324 -0 -26.0015 -0 0 -1.186 -1.5018 0.391991 9.78763 -7.28491 0 9.964 0.2134 2.10834 19.4416 -14.9709 0 13.134 -3.2573 2.10834 19.4416 -14.9709 0 20.686 -1.6905 -0.232685 -0.102813 15.6012 2.22045e-016 7.238 -0.1237 22.3566 -9.26327 -22.2153 1.7069 20.075 5.0056 -4.04743e-007 -5.41668e-007 0.0716884 13.6458 -0.047 -4.849 43.933 -9.26369 -61.5371 28.3255 -0.9759 2.2888 17.0161 4.7953 -65.0423 22.1583 -0.53 10.8316 -19.8359 -37.7761 -18.0763 0.786 0.112 2.5817 -9.59136e-015 -1.59028e-015 3.97569e-016 0.3601 -0.878 4.2331 -1.28216e-014 1.59028e-015 -0 1.8127 -1.216 2.2227 -9.83984e-015 0 -0 0.9571 1.114 1.7695 1.49089e-016 0 3.97569e-016 4.1246 0.487 4.1451 -5.41688e-015 0 6.36111e-015 3.4052 -1.454 2.7682 -1.5207e-014 0 -3.97569e-016 1.4531 -1.795 1.2713 -2.48481e-015 0 -7.95139e-016 5.6954 0.21 2.1184 -5.41688e-015 0 6.36111e-015 3.9766 -1.54 2.3863 -1.5207e-014 0 -3.97569e-016 1.4042 -1.926 1.125 -2.48481e-015 0 -7.95139e-016 2.0956 0.66 -0.3894 1.49089e-016 0 3.97569e-016 5.0395 -0.09 2.4971 -5.41688e-015 0 6.36111e-015 3.7921 -1.552 1.4806 -1.5207e-014 0 -3.97569e-016 1.4655 -1.808 0.9609 -2.48481e-015 0 -7.95139e-016 4.9141 -1.269 0.3591 -5.41688e-015 0 6.36111e-015 3.1477 -1.685 0.8462 -1.5207e-014 0 -3.97569e-016 0.8055 -1.585 0.7955 -2.48481e-015 0 -7.95139e-016 -1.7069 20.075 5.0056 5.76478e-009 -2.16833e-006 -3.34252e-006 -13.6458 -0.047 -4.849 2.18902 -36.2381 43.1276 -28.3255 -0.9759 2.2888 -1.74811 1.20616 -16.8394 -22.1583 -0.53 10.8316 0 1.59028e-015 -0 -0.786 0.112 2.5817 -1.98785e-016 1.59028e-015 -0 -0.3601 -0.878 4.2331 -1.98785e-016 0 -0 -1.8127 -1.216 2.2227 -1.98785e-016 1.59028e-015 1.59028e-015 -0.9571 1.114 1.7695 -1.98785e-016 1.59028e-015 -0 -4.1246 0.487 4.1451 1.76556e-031 -1.59028e-015 6.36111e-015 -3.4052 -1.454 2.7682 3.97569e-016 1.59028e-015 -1.59028e-015 -1.4531 -1.795 1.2713 -8.82781e-032 3.18055e-015 1.59028e-015 -5.6954 0.21 2.1184 1.76556e-031 -1.59028e-015 6.36111e-015 -3.9766 -1.54 2.3863 3.97569e-016 1.59028e-015 -1.59028e-015 -1.4042 -1.926 1.125 -8.82781e-032 3.18055e-015 1.59028e-015 -2.0956 0.66 -0.3894 -1.98785e-016 1.59028e-015 -0 -5.0395 -0.09 2.4971 1.76556e-031 -1.59028e-015 6.36111e-015 -3.7921 -1.552 1.4806 3.97569e-016 1.59028e-015 -1.59028e-015 -1.4655 -1.808 0.9609 -8.82781e-032 3.18055e-015 1.59028e-015 -4.9141 -1.269 0.3592 1.76556e-031 -1.59028e-015 6.36111e-015 -3.1477 -1.685 0.8462 3.97569e-016 1.59028e-015 -1.59028e-015 -0.8055 -1.585 0.7955 -8.82781e-032 3.18055e-015 1.59028e-015 8.367 -8.2066 0.5982 -171.109 -62.7633 -159.86 2.1923 -43.463 -0.4932 179.179 50.9773 -172.437 0.7333 -45.8593 -2.6451 5.78725 8.40289 3.99168 -8.367 -8.2066 0.5982 -50.7955 -72.5366 -52.9028 -2.1923 -43.463 -0.4931 0.0237922 30.594 -1.74501 -0.7333 -45.8593 -2.6451 -5.33907 31.5655 0.660399 
0.867329 14.7134 -4.10842 -0 -26.0015 -0 0 -1.186 -1.5018 0.391991 9.78763 -7.2849 -1.11022e-016 9.964 0.2134 2.10834 19.4416 -14.9709 -4.44089e-016 13.134 -3.2573 2.10834 19.4416 -14.9709 0 20.686 -1.6905 -0.234857 -0.103401 15.5491 -8.88178e-016 7.238 -0.1237 22.4314 -9.25837 -22.2032 1.7069 20.075 5.0056 -5.94381e-007 5.91477e-007 0.0716874 13.6458 -0.047 -4.849 43.6755 -9.26059 -61.4365 28.3255 -0.9759 2.2888 16.9593 4.76583 -65.0923 22.1583 -0.53 10.8316 -19.7327 -37.6644 -17.9779 0.786 0.112 2.5817 -3.47873e-016 1.59028e-015 3.97569e-016 0.3601 -0.878 4.2331 -6.75868e-015 0 7.95139e-016 1.8127 -1.216 2.2227 -7.10655e-015 3.18055e-015 -3.97569e-016 0.9571 1.114 1.7695 -4.47266e-016 0 -0 4.1246 0.487 4.1451 -5.91384e-015 3.18055e-015 5.96354e-015 3.4052 -1.454 2.7682 -3.03147e-015 1.59028e-015 -3.97569e-016 1.4531 -1.795 1.2713 -6.21202e-015 3.18055e-015 -7.95139e-016 5.6954 0.21 2.1184 -5.91384e-015 3.18055e-015 5.96354e-015 3.9766 -1.54 2.3863 -3.03147e-015 1.59028e-015 -3.97569e-016 1.4042 -1.926 1.125 -6.21202e-015 3.18055e-015 -7.95139e-016 2.0956 0.66 -0.3894 -4.47266e-016 0 -0 5.0395 -0.09 2.4971 -5.91384e-015 3.18055e-015 5.96354e-015 3.7921 -1.552 1.4806 -3.03147e-015 1.59028e-015 -3.97569e-016 1.4655 -1.808 0.9609 -6.21202e-015 3.18055e-015 -7.95139e-016 4.9141 -1.269 0.3591 -5.91384e-015 3.18055e-015 5.96354e-015 3.1477 -1.685 0.8462 -3.03147e-015 1.59028e-015 -3.97569e-016 0.8055 -1.585 0.7955 -6.21202e-015 3.18055e-015 -7.95139e-016 -1.7069 20.075 5.0056 5.76474e-009 -2.16833e-006 -3.34251e-006 -13.6458 -0.047 -4.849 2.18902 -36.2381 43.1276 -28.3255 -0.9759 2.2888 -1.74811 1.20616 -16.8394 -22.1583 -0.53 10.8316 -1.79873e-011 7.94276e-007 8.97171e-007 -0.786 0.112 2.5817 2.78299e-015 3.18055e-015 1.59028e-015 -0.3601 -0.878 4.2331 8.45723e-007 7.42866e-008 -7.42686e-008 -1.8127 -1.216 2.2227 9.93923e-016 -1.59028e-015 1.59028e-015 -0.9571 1.114 1.7695 2.5842e-015 1.59028e-015 -0 -4.1246 0.487 4.1451 1.78906e-015 0 7.95139e-015 -3.4052 -1.454 2.7682 8.45723e-007 7.42866e-008 -7.42686e-008 -1.4531 -1.795 1.2713 3.97569e-016 1.59028e-015 1.59028e-015 -5.6954 0.21 2.1184 1.78906e-015 0 7.95139e-015 -3.9766 -1.54 2.3863 8.45723e-007 7.42866e-008 -7.42686e-008 -1.4042 -1.926 1.125 3.97569e-016 1.59028e-015 1.59028e-015 -2.0956 0.66 -0.3894 2.5842e-015 1.59028e-015 -0 -5.0395 -0.09 2.4971 1.78906e-015 0 7.95139e-015 -3.7921 -1.552 1.4806 8.45723e-007 7.42866e-008 -7.42686e-008 -1.4655 -1.808 0.9609 3.97569e-016 1.59028e-015 1.59028e-015 -4.9141 -1.269 0.3592 1.78906e-015 0 7.95139e-015 -3.1477 -1.685 0.8462 8.45723e-007 7.42866e-008 -7.42686e-008 -0.8055 -1.585 0.7955 3.97569e-016 1.59028e-015 1.59028e-015 8.367 -8.2066 0.5982 -171.116 -62.7319 -159.865 2.1923 -43.463 -0.4932 179.183 50.9657 -172.436 0.7333 -45.8593 -2.6451 5.7883 8.42208 3.99217 -8.367 -8.2066 0.5982 -49.8483 -72.3804 -51.8132 -2.1923 -43.463 -0.4931 -0.0415921 29.6646 -2.83647 -0.7333 -45.8593 -2.6451 -5.99849 31.7204 2.02784 
0.869584 14.7031 -4.11339 -0 -26.0015 -0 0 -1.186 -1.5018 0.391991 9.78763 -7.2849 -1.11022e-016 9.964 0.2134 2.10834 19.4416 -14.9709 -4.44089e-016 13.134 -3.2573 2.10834 19.4416 -14.9709 0 20.686 -1.6905 -0.237148 -0.104265 15.4971 -1.11022e-015 7.238 -0.1237 22.5063 -9.25345 -22.1912 1.7069 20.075 5.0056 -5.94381e-007 5.91477e-007 0.0716874 13.6458 -0.047 -4.849 43.4179 -9.25793 -61.3358 28.3255 -0.9759 2.2888 16.9025 4.73641 -65.1423 22.1583 -0.53 10.8316 -19.6299 -37.5526 -17.8798 0.786 0.112 2.5817 7.60351e-015 -2.70347e-014 -0 0.3601 -0.878 4.2331 -8.94531e-016 -2.54444e-014 -7.95139e-016 1.8127 -1.216 2.2227 -2.88238e-015 -2.70347e-014 -0 0.9571 1.114 1.7695 7.60351e-015 0 -0 4.1246 0.487 4.1451 5.31749e-015 -2.70347e-014 5.96354e-015 3.4052 -1.454 2.7682 -6.70898e-015 -2.54444e-014 -0 1.4531 -1.795 1.2713 -2.08724e-015 -2.70347e-014 1.19271e-015 5.6954 0.21 2.1184 5.31749e-015 -2.70347e-014 5.96354e-015 3.9766 -1.54 2.3863 -6.70898e-015 -2.54444e-014 -0 1.4042 -1.926 1.125 -2.08724e-015 -2.70347e-014 1.19271e-015 2.0956 0.66 -0.3894 7.60351e-015 0 -0 5.0395 -0.09 2.4971 5.31749e-015 -2.70347e-014 5.96354e-015 3.7921 -1.552 1.4806 -6.70898e-015 -2.54444e-014 -0 1.4655 -1.808 0.9609 -2.08724e-015 -2.70347e-014 1.19271e-015 4.9141 -1.269 0.3591 5.31749e-015 -2.70347e-014 5.96354e-015 3.1477 -1.685 0.8462 -6.70898e-015 -2.54444e-014 -0 0.8055 -1.585 0.7955 -2.08724e-015 -2.70347e-014 1.19271e-015 -1.7069 20.075 5.0056 5.76474e-009 -2.16833e-006 -3.34251e-006 -13.6458 -0.047 -4.849 2.18901 -36.2381 43.1276 -28.3255 -0.9759 2.2888 -1.74811 1.20616 -16.8394 -22.1583 -0.53 10.8316 7.42686e-008 -5.14479e-008 8.45724e-007 -0.786 0.112 2.5817 9.93923e-016 1.59028e-015 -0 -0.3601 -0.878 4.2331 -3.97569e-016 1.59028e-015 1.59028e-015 -1.8127 -1.216 2.2227 -1.98785e-015 0 1.59028e-015 -0.9571 1.114 1.7695 1.78906e-015 0 -0 -4.1246 0.487 4.1451 5.96354e-016 3.18055e-015 9.54166e-015 -3.4052 -1.454 2.7682 -2.98177e-015 1.59028e-015 3.18055e-015 -1.4531 -1.795 1.2713 1.98785e-016 0 -0 -5.6954 0.21 2.1184 5.96354e-016 3.18055e-015 9.54166e-015 -3.9766 -1.54 2.3863 -2.98177e-015 1.59028e-015 3.18055e-015 -1.4042 -1.926 1.125 1.98785e-016 0 -0 -2.0956 0.66 -0.3894 1.78906e-015 0 -0 -5.0395 -0.09 2.4971 5.96354e-016 3.18055e-015 9.54166e-015 -3.7921 -1.552 1.4806 -2.98177e-015 1.59028e-015 3.18055e-015 -1.4655 -1.808 0.9609 1.98785e-016 0 -0 -4.9141 -1.269 0.3592 5.96354e-016 3.18055e-015 9.54166e-015 -3.1477 -1.685 0.8462 -2.98177e-015 1.59028e-015 3.18055e-015 -0.8055 -1.585 0.7955 1.98785e-016 0 -0 8.367 -8.2066 0.5982 -171.119 -62.7183 -159.866 2.1923 -43.463 -0.4932 179.182 50.971 -172.434 0.7333 -45.8593 -2.6451 5.78921 8.44083 3.9926 -8.367 -8.2066 0.5982 -48.9206 -72.2203 -50.7439 -2.1923 -43.463 -0.4931 -0.0309511 28.758 -2.81625 -0.7333 -45.8593 -2.6451 -6.0204 31.9698 2.0499 
0.87162 14.6929 -4.11815 -0 -26.0015 -0 0 -1.186 -1.5018 0.391993 9.78764 -7.2849 0 9.964 0.2134 2.10834 19.4416 -14.9709 0 13.134 -3.2573 2.10834 19.4416 -14.9709 0 20.686 -1.6905 -0.239544 -0.105325 15.4451 0 7.238 -0.1237 22.5811 -9.24852 -22.1791 1.7069 20.075 5.0056 -4.06858e-007 -5.42735e-007 0.0716884 13.6458 -0.047 -4.849 43.16 -9.25571 -61.235 28.3255 -0.9759 2.2888 16.8457 4.70701 -65.1924 22.1583 -0.53 10.8316 -19.5275 -37.4407 -17.7821 0.786 0.112 2.5817 4.42054e-007 -1.52065e-006 1.28978e-007 0.3601 -0.878 4.2331 -3.34455e-014 -1.59028e-015 3.18055e-015 1.8127 -1.216 2.2227 -4.42054e-007 1.52065e-006 -1.28978e-007 0.9571 1.114 1.7695 -4.42296e-015 1.59028e-015 -1.59028e-015 4.1246 0.487 4.1451 4.42054e-007 -1.52065e-006 1.28978e-007 3.4052 -1.454 2.7682 -2.82274e-014 -3.18055e-015 3.97569e-015 1.4531 -1.795 1.2713 -4.42054e-007 1.52065e-006 -1.28978e-007 5.6954 0.21 2.1184 4.42054e-007 -1.52065e-006 1.28978e-007 3.9766 -1.54 2.3863 -2.82274e-014 -3.18055e-015 3.97569e-015 1.4042 -1.926 1.125 -4.42054e-007 1.52065e-006 -1.28978e-007 2.0956 0.66 -0.3894 -4.42296e-015 1.59028e-015 -1.59028e-015 5.0395 -0.09 2.4971 4.42054e-007 -1.52065e-006 1.28978e-007 3.7921 -1.552 1.4806 -2.82274e-014 -3.18055e-015 3.97569e-015 1.4655 -1.808 0.9609 -4.42054e-007 1.52065e-006 -1.28978e-007 4.9141 -1.269 0.3591 4.42054e-007 -1.52065e-006 1.28978e-007 3.1477 -1.685 0.8462 -2.82274e-014 -3.18055e-015 3.97569e-015 0.8055 -1.585 0.7955 -4.42054e-007 1.52065e-006 -1.28978e-007 -1.7069 20.075 5.0056 5.76484e-009 -2.16833e-006 -3.34252e-006 -13.6458 -0.047 -4.849 2.18902 -36.2381 43.1276 -28.3255 -0.9759 2.2888 -1.74811 1.20616 -16.8394 -22.1583 -0.53 10.8316 -7.71437e-007 -9.2001e-007 2.28207e-008 -0.786 0.112 2.5817 2.38542e-015 1.59028e-015 3.18055e-015 -0.3601 -0.878 4.2331 1.39149e-015 1.59028e-015 3.18055e-015 -1.8127 -1.216 2.2227 1.19271e-015 0 4.77083e-015 -0.9571 1.114 1.7695 2.18663e-015 0 1.59028e-015 -4.1246 0.487 4.1451 2.5842e-015 3.18055e-015 7.95139e-015 -3.4052 -1.454 2.7682 1.78906e-015 0 4.77083e-015 -1.4531 -1.795 1.2713 1.19271e-015 1.59028e-015 3.18055e-015 -5.6954 0.21 2.1184 2.5842e-015 3.18055e-015 7.95139e-015 -3.9766 -1.54 2.3863 1.78906e-015 0 4.77083e-015 -1.4042 -1.926 1.125 1.19271e-015 1.59028e-015 3.18055e-015 -2.0956 0.66 -0.3894 2.18663e-015 0 1.59028e-015 -5.0395 -0.09 2.4971 2.5842e-015 3.18055e-015 7.95139e-015 -3.7921 -1.552 1.4806 1.78906e-015 0 4.77083e-015 -1.4655 -1.808 0.9609 1.19271e-015 1.59028e-015 3.18055e-015 -4.9141 -1.269 0.3592 2.5842e-015 3.18055e-015 7.95139e-015 -3.1477 -1.685 0.8462 1.78906e-015 0 4.77083e-015 -0.8055 -1.585 0.7955 1.19271e-015 1.59028e-015 3.18055e-015 8.367 -8.2066 0.5982 -171.124 -62.7002 -159.868 2.1923 -43.463 -0.4932 179.182 50.9715 -172.432 0.7333 -45.8593 -2.6451 5.78998 8.45927 3.99295 -8.367 -8.2066 0.5982 -48.0101 -72.0577 -49.6928 -2.1923 -43.463 -0.4931 -0.0249637 27.8588 -2.79391 -0.7333 -45.8593 -2.6451 -6.04024 32.2186 2.07133 
